<?xml version="1.0" encoding="UTF-8" standalone="no"?>
<svg
   id="Layer_2"
   data-name="Layer 2"
   viewBox="0 0 499.99999 493.79157"
   version="1.1"
   sodipodi:docname="HOA2020.svg"
   xml:space="preserve"
   width="499.99997"
   height="493.79156"
   inkscape:version="1.3.2 (091e20e, 2023-11-25, custom)"
   xmlns:inkscape="http://www.inkscape.org/namespaces/inkscape"
   xmlns:sodipodi="http://sodipodi.sourceforge.net/DTD/sodipodi-0.dtd"
   xmlns="http://www.w3.org/2000/svg"
   xmlns:svg="http://www.w3.org/2000/svg"><sodipodi:namedview
     id="namedview29"
     pagecolor="#505050"
     bordercolor="#eeeeee"
     borderopacity="1"
     inkscape:showpageshadow="0"
     inkscape:pageopacity="0"
     inkscape:pagecheckerboard="0"
     inkscape:deskcolor="#d1d1d1"
     inkscape:zoom="0.1767767"
     inkscape:cx="138.59293"
     inkscape:cy="-421.43564"
     inkscape:window-width="1920"
     inkscape:window-height="991"
     inkscape:window-x="-9"
     inkscape:window-y="-9"
     inkscape:window-maximized="1"
     inkscape:current-layer="Layer_2" /><defs
     id="defs1"><style
       id="style1">
      .cls-1 {
        fill: #e1070f;
      }

      .cls-2 {
        fill: #a40609;
      }

      .cls-3 {
        fill: #fff;
      }

      .cls-4 {
        fill: #9f060a;
      }

      .cls-5 {
        fill: #c6080d;
      }

      .cls-6 {
        fill: #d4080f;
      }

      .cls-7 {
        fill: #a70409;
      }

      .cls-8 {
        fill: #a10309;
      }

      .cls-9 {
        fill: #d1080c;
      }

      .cls-10 {
        fill: #a1070b;
      }

      .cls-11 {
        fill: #a2070b;
      }

      .cls-12 {
        fill: #da0711;
      }

      .cls-13 {
        fill: #e40810;
      }

      .cls-14 {
        fill: #e20812;
      }

      .cls-15 {
        fill: #ce080b;
      }

      .cls-16 {
        fill: #e10910;
      }

      .cls-17 {
        fill: #e50710;
      }

      .cls-18 {
        fill: #c90b14;
      }
    </style><clipPath
       clipPathUnits="userSpaceOnUse"
       id="clipPath67"><path
         id="path68"
         style="font-size:227.647px;font-family:'Eagle Book';-inkscape-font-specification:'Eagle Book, ';text-align:center;letter-spacing:0px;word-spacing:0px;text-anchor:middle;fill:#ffffff;stroke-width:53.7817;paint-order:stroke fill markers"
         d="m 9951.7422,4485.9258 c -28.9111,0 -53.043,24.3577 -53.043,58.7324 0,37.3341 23.22,59.1875 53.7246,59.1875 13.8864,0 28.2296,-6.1467 32.0996,-17.9844 v 14.3418 c 0,1.1382 0.6818,2.0489 2.2754,2.0489 h 32.3262 c 1.138,0 1.82,-0.6815 1.82,-3.1856 v -109.7266 c 0,-1.1382 -0.453,-2.0488 -1.591,-2.0488 h -35.0591 c -1.3659,0 -1.8203,0.6835 -1.8203,2.7324 v 13.8868 c -3.4147,-8.8782 -15.2524,-17.9844 -30.7324,-17.9844 z m 290.6598,0 c -28.911,0 -53.043,24.3577 -53.043,58.7324 0,37.3341 23.222,59.1875 53.727,59.1875 13.886,0 28.228,-6.1467 32.098,-17.9844 v 14.3418 c 0,1.1382 0.682,2.0489 2.275,2.0489 h 32.326 c 1.139,0 1.822,-0.6815 1.822,-3.1856 v -109.7266 c 0,-1.1382 -0.455,-2.0488 -1.593,-2.0488 h -35.059 c -1.366,0 -1.82,0.6835 -1.82,2.7324 v 13.8868 c -3.415,-8.8782 -15.253,-17.9844 -30.733,-17.9844 z m -282.693,35.5117 c 12.5206,0 22.7656,8.8796 22.7656,23.9043 0,14.3417 -10.245,23.9023 -22.7656,23.9023 -12.7482,0 -23.2188,-9.5608 -23.2188,-23.4472 0,-14.1141 8.877,-24.3594 23.2188,-24.3594 z m 290.66,0 c 12.521,0 22.766,8.8796 22.766,23.9043 0,14.3417 -10.245,23.9023 -22.766,23.9023 -12.748,0 -23.219,-9.5608 -23.219,-23.4472 0,-14.1141 8.878,-24.3594 23.219,-24.3594 z" /></clipPath><clipPath
       clipPathUnits="userSpaceOnUse"
       id="clipPath68"><path
         id="path69"
         style="display:inline;fill:#000000;stroke-width:2.21911"
         d="m 10045.514,4175.2559 c -41.737,0 -68.6886,16.531 -89.3304,35.2617 -26.2742,23.8415 -71.6211,74.0688 -71.6211,201.5136 0,88.5881 24.7394,173.0666 37.5742,213.4043 77.0807,16.5923 109.6383,17.086 167.2563,17.086 88.434,0 162.947,-26.0631 203.83,-59.1777 33.191,-26.8841 64.48,-81.4376 64.48,-130.3243 0,-53.0857 -36.955,-87.244 -73.295,-104.0703 -29.707,-13.755 -64.989,-16.3769 -83.215,-16.3769 -13.446,0 -21.045,0.5 -21.045,0.5 2.361,-82.3458 -43.207,-130.0385 -74.806,-145.1407 -23.572,-11.2659 -46.317,-12.6757 -59.828,-12.6757 z" /></clipPath></defs><g
     id="g69"
     transform="matrix(1.0567685,0,0,1.0567685,-10445.694,-4412.2789)"><g
       id="g50"
       style="display:inline"
       clip-path="url(#clipPath68)"><path
         id="path29"
         style="display:inline;fill:#a2070b;fill-opacity:1;stroke-width:31.5;paint-order:stroke fill markers"
         d="m 9987.2148,4161.3398 -8.6503,83.2032 181.5195,103.3281 -65.232,-166.9277 z m 172.8692,186.5313 20.248,-49.8301 -8.82,-46.416 -36.754,-50.8281 z m 0,0 90.609,93.4101 42.846,-52.0878 1.26,-47.4668 -35.75,-22.6993 -78.901,14.045 z m -181.5195,-103.3281 -104.1075,131.9043 198.982,0.6054 z m 372.8045,131.5468 -10.574,99.8457 17.848,0.1993 6.685,-10.9375 z m -479.4002,6.5332 33.2656,163.959 83.1679,95.3457 33.5647,5.9414 v -15.1484 l -108.1115,-174.7812 z m 41.8867,75.3165 118.8265,124.9003 25.205,-128.1171 z m 275.0875,108.9394 -126.015,77.7109 80.65,21.4219 z"
         sodipodi:nodetypes="ccccccccccccccccccccccccccccccccccccccccc" /><path
         id="path36"
         style="display:inline;fill:#e1070f;fill-opacity:1;stroke-width:31.5;paint-order:stroke fill markers"
         d="m 9960.75,4171.5 -67.1074,43.7891 -19.1856,161.1582 104.1075,-131.9043 z m -86.293,204.9473 -2.4882,6.1757 41.8867,75.3165 151.9045,-50.6622 123.183,159.6016 -115.504,-189.8262 z m 314.486,190.4316 51.338,76.2363 63.338,-51.0332 -10.92,-18.4824 z m 0,0 -131.056,-112.1562 -25.205,128.1171 z m -74.314,-397.3769 -19.777,11.4414 65.232,166.9277 -25.326,-147.0742 z m 180.17,172.2246 -1.26,47.4668 -42.846,52.0878 90.102,34.6543 10.574,-99.8457 z"
         sodipodi:nodetypes="cccccccccccccccccccccccccccccccc" /><path
         id="path37"
         style="display:inline;fill:#d1080c;fill-opacity:1;stroke-width:31.5;paint-order:stroke fill markers"
         d="m 10065.76,4407.2773 -151.9045,50.6622 144.0315,-3.2168 131.056,112.1562 z m 123.183,159.6016 103.756,6.7207 10.92,18.4824 67.631,-97.4531 -12.607,-18.4941 -17.848,-0.199 -90.102,-34.6543 z m 0,0 -45.365,99.1328 96.703,-22.8965 z m 0,0 -156.261,15.9609 -118.8265,-124.9003 108.1115,174.7812 v 15.1484 l 40.961,-3.2793 z"
         sodipodi:nodetypes="cccccccccccccccccccccccc" /><path
         style="display:inline;fill:#c6080d;fill-opacity:1;stroke-width:31.5;paint-order:stroke fill markers"
         d="m 10073.439,4377.0526 177.254,64.2282 -61.749,125.5975 z"
         id="path39" /><path
         id="path43"
         style="display:inline;fill:#c90b14;fill-opacity:1;stroke-width:31.5;paint-order:stroke fill markers"
         d="m 9987.2148,4161.3398 -26.4648,10.1602 17.8145,73.043 z m -8.6503,83.2032 94.8745,132.5097 177.254,64.2285 -90.609,-93.4101 z m 181.5195,103.3281 20.064,-14.7988 8.795,-10.668 -8.611,-24.3633 z m -288.1152,34.7519 -22.6778,210.7422 81.5449,62.9336 57.5664,-14.3711 -83.1679,-95.3457 z" /></g><path
       id="path67-2"
       style="display:inline;fill:#ffffff;stroke-width:2.21911"
       d="m 10045.513,4175.2559 c -41.736,0 -68.6875,16.531 -89.3295,35.2617 -26.274,23.8415 -71.621,74.0688 -71.621,201.5136 0,88.5881 24.739,173.0666 37.574,213.4043 77.081,16.5923 109.6375,17.086 167.2555,17.086 88.434,0 162.947,-26.0631 203.83,-59.1777 33.191,-26.8841 64.48,-81.4376 64.48,-130.3243 0,-53.0857 -36.955,-87.244 -73.295,-104.0703 -29.707,-13.755 -64.989,-16.3769 -83.215,-16.3769 -13.446,0 -21.045,0.5 -21.045,0.5 2.361,-82.3458 -43.207,-130.0385 -74.806,-145.1407 -23.572,-11.2659 -46.317,-12.6757 -59.828,-12.6757 z"
       clip-path="url(#clipPath67)" /><path
       id="path66"
       style="font-size:96.7362px;font-family:'Eagle Book';-inkscape-font-specification:'Eagle Book, ';text-align:center;letter-spacing:0px;word-spacing:0px;text-anchor:middle;fill:#ffffff;stroke-width:22.8541;paint-order:stroke fill markers"
       d="m 10049.477,4348.3105 c -0.206,-0.012 -0.47,0.012 -0.76,0.012 -0.58,0 -1.065,-1e-4 -1.162,0.1933 -7.545,14.1235 -22.83,44.9827 -32.891,66.3614 -0.387,0.9673 -0.29,1.3535 0.484,1.3535 h 16.059 c 1.258,0 1.45,-0.2906 1.74,-1.0645 0.968,-2.3217 2.226,-5.6097 3.387,-8.3183 h 23.41 c 0.967,2.4184 2.418,5.9974 3.578,8.6093 0.291,0.6771 0.679,0.7735 1.162,0.7735 h 18.09 c 0.87,0 0.967,-0.096 0.387,-1.3535 -10.641,-21.3787 -24.281,-49.1423 -33.084,-66.3614 -0.05,-0.1451 -0.195,-0.193 -0.4,-0.2051 z m -150.2524,2.3321 c -0.3673,0.018 -0.3672,0.1453 -0.3672,0.8711 v 63.8457 c 0,0.9674 5e-4,0.8711 0.8711,0.8711 h 15.7676 c 0.6772,0 0.7734,-0.097 0.7734,-0.8711 v -25.5371 h 21.961 v 25.5371 c 0,0.7739 0.096,0.8711 0.9668,0.8711 h 15.5742 c 0.8707,0 0.8711,0.097 0.8711,-0.8711 v -63.8457 c 0,-0.9674 -4e-4,-0.8711 -0.8711,-0.8711 h -15.5742 c -0.8706,0 -0.9668,0.097 -0.9668,0.8711 v 22.8301 h -21.961 v -22.8301 c 0,-0.7739 -0.096,-0.8711 -0.7734,-0.8711 h -15.7676 c -0.2176,0 -0.3815,-0.01 -0.5039,0 z m 68.7598,0 c -0.9674,0 -0.8711,0.098 -0.8711,0.9687 v 63.2657 c 0,1.1608 0.097,1.3535 1.0644,1.3535 h 44.2093 c 0.967,0 1.062,-0.1927 1.062,-1.3535 v -12.4805 c 0,-1.2576 0,-1.2578 -1.062,-1.2578 l -28.344,0.291 v -11.2207 h 27.086 c 0.871,0 0.967,-0.1946 0.967,-1.3555 v -11.8008 c 0,-1.1608 -0.1,-1.3554 -0.967,-1.3554 h -27.086 v -10.9297 l 27.666,0.289 c 0.774,0 1.064,-0.4829 1.064,-1.3535 v -11.8027 c 0,-1.1608 -0.1,-1.2578 -1.064,-1.2578 z m 119.4846,0 c -0.259,0.018 -0.531,0.1453 -0.531,0.8711 v 63.8457 c 0,0.9674 0,0.8711 0.775,0.8711 h 15.863 c 0.678,0 0.774,-0.097 0.774,-0.8711 v -18.2832 l 11.125,-0.1934 c 0,0 7.062,11.1243 10.351,17.4121 0.87,1.7413 1.257,1.9356 2.031,1.9356 h 17.122 c 1.065,0 1.356,-0.6767 0.195,-2.6114 -5.611,-9.0932 -11.126,-18.8638 -13.641,-22.83 5.901,-2.8053 8.996,-9.0925 8.996,-17.9922 0,-11.8985 -7.933,-22.1543 -22.83,-22.1543 h -29.986 c -0.07,0 -0.158,-0.01 -0.244,0 z m 56.297,0 c -0.774,0 -0.776,0.1948 -0.776,0.9687 v 12.4785 c 0,0.5804 0,0.6778 0.68,0.6778 l 17.023,-0.1934 v 50.7852 c 0,0.9674 0,0.8711 0.969,0.8711 h 15.961 c 0.774,0 0.871,-0.097 0.871,-0.8711 v -50.7852 l 16.541,0.1934 c 0.58,0 0.678,-0.098 0.678,-0.6778 v -12.4785 c 0,-0.7739 -0.1,-0.9687 -0.774,-0.9687 z m -39.416,14.414 h 9.578 c 5.611,0 8.222,3.8691 8.222,8.9961 0,5.6107 -2.903,9.4804 -8.127,9.6739 l -9.673,0.291 z m -56.602,14.5118 6.869,14.7031 h -13.445 z m -123.5292,48.6054 c -14.5195,0 -25.5176,11.4275 -25.5176,25.5157 0,14.0882 10.9981,25.4453 25.5176,25.4453 14.5195,0 25.5156,-11.3571 25.5156,-25.4453 0,-14.0882 -10.9961,-25.5157 -25.5156,-25.5157 z m 32.6074,1.0059 c -0.5032,0 -0.5742,0.071 -0.5742,0.9336 v 46.7929 c 0,1.0782 0.1429,1.0079 0.5742,1.0079 h 11.7168 c 0.575,0 0.6465,-0.2173 0.6465,-1.0079 v -15.8847 l 16.9628,0.1445 c 0.6469,0 0.934,-0.1441 1.0059,-0.791 0.2157,-3.4502 0.1438,-6.6842 0,-9.7031 0,-0.575 -0.2867,-0.8633 -0.9336,-0.8633 l -17.0351,0.2148 v -9.7754 l 19.1914,0.1446 c 0.575,0 0.5023,-0.072 0.5742,-0.7188 0.2875,-2.8033 0.2156,-6.6846 0,-9.7754 -0.072,-0.575 8e-4,-0.7187 -0.5742,-0.7187 z m -32.6074,11.2851 c 7.6191,0 12.0742,5.8212 12.0742,13.2247 0,7.4034 -4.4551,13.1542 -12.0742,13.1543 -7.7629,0 -12.0762,-5.7509 -12.0762,-13.1543 0,-7.4035 4.3133,-13.2247 12.0762,-13.2247 z" /><path
       style="font-size:227.647px;font-family:'Eagle Book';-inkscape-font-specification:'Eagle Book, ';text-align:center;letter-spacing:0px;word-spacing:0px;text-anchor:middle;fill:#ffffff;stroke-width:53.7817;paint-order:stroke fill markers"
       d="M 10180.512,4599.7488 V 4490.023 c 0,-2.7318 -0.456,-2.7318 -2.277,-2.7318 -12.748,0 -21.854,0 -34.83,0 -1.593,0 -1.593,0 -1.593,2.7318 0,42.1147 0,67.1558 0,109.0429 0,3.187 0.227,3.187 1.821,3.187 13.203,0 22.309,0 34.83,0 1.593,0 2.049,-0.4553 2.049,-2.5041 z"
       id="path61" /><path
       style="font-size:227.647px;font-family:'Eagle Book';-inkscape-font-specification:'Eagle Book, ';text-align:center;letter-spacing:0px;word-spacing:0px;text-anchor:middle;fill:#ffffff;stroke-width:53.7817;paint-order:stroke fill markers"
       d="m 10132.398,4564.0082 c 0,-21.3988 -15.707,-30.96 -38.472,-35.7405 -19.578,-3.87 -24.814,-6.1465 -24.814,-10.6995 0,-5.0082 3.87,-7.9676 12.749,-7.9676 7.512,0 13.431,4.0976 17.301,10.2441 0.91,1.3659 1.138,1.3659 2.504,0.683 l 25.269,-8.8783 c 1.366,-0.4553 1.366,-1.8212 1.138,-3.187 -4.553,-15.0247 -19.578,-24.5859 -44.847,-24.5859 -31.642,0 -51.22,13.4312 -51.22,37.3341 0,22.7647 15.025,30.5047 36.651,35.9682 17.529,4.3253 22.309,7.5124 22.309,13.6588 0,5.0083 -4.552,9.1059 -14.797,9.1059 -8.423,0 -15.935,-5.4635 -18.439,-12.2929 -0.228,-0.683 -1.138,-1.1382 -2.049,-0.9106 l -24.813,9.5612 c -1.139,0.4553 -1.139,1.8211 -0.683,3.4147 7.284,16.1629 20.943,26.6347 49.854,26.6347 33.237,0 52.359,-16.8459 52.359,-42.3424 z"
       id="path59" /></g></svg>
